<svg width="137" height="137" viewBox="0 0 137 137" fill="none" xmlns="http://www.w3.org/2000/svg">
<rect width="100" height="100" transform="translate(0 50.091) rotate(-30)" fill="#FFD64D"/>
<path d="M74.1255 41.0212C76.1753 42.1539 78.145 42.8815 79.6615 44.1558C81.6102 45.8101 83.279 47.8399 84.9182 49.8392C86.0859 51.2674 85.9302 51.7968 84.2509 54.2154C85.5292 55.4254 86.8952 56.644 88.1828 57.9317C92.047 61.8178 92.242 66.9909 88.3981 70.8849C86.971 72.3265 86.5854 73.5231 87.3763 75.3233C87.5737 75.7676 87.2027 76.4568 87.0956 77.0294C84.6045 76.1159 83.5718 78.5888 81.7776 79.2921C81.5175 79.3948 81.1797 79.281 80.3921 79.2487C81.0596 78.3763 81.5091 77.8436 81.9049 77.2588C82.2465 76.7646 82.5307 76.2323 82.834 75.7127C82.2378 75.3562 81.6372 74.7052 81.0252 74.6903C79.2353 74.6428 77.1439 76.8599 77.2341 78.4707C77.3605 80.5951 78.8639 81.8058 81.2432 81.7268C81.9859 81.7018 82.7254 81.7738 83.4672 81.8087C83.5537 82.0201 83.6402 82.2314 83.7268 82.4428C82.9904 82.8679 82.2797 83.3376 81.5265 83.7131C79.9617 84.4859 78.3866 85.2409 76.7703 85.9246C76.3314 86.1067 75.7074 86.1938 75.293 86.0292C71.5838 84.5836 69.776 86.7795 68.146 89.5498C67.6588 90.3655 66.8282 90.9758 65.6289 92.2383C65.7158 88.209 63.0512 88.4291 60.3467 87.7812C60.4371 89.0237 60.5242 90.1374 60.6211 91.4118C60.5436 91.4209 60.1467 91.6144 59.9462 91.4926C56.4067 89.2958 52.343 87.9123 50.3609 83.5572C49.1127 80.8215 46.8193 78.5703 45.0522 76.0629C44.6698 75.5235 44.4162 74.8384 44.2888 74.1874C43.5223 70.1758 42.8156 66.1652 42.0977 62.1968C42.4503 62.0289 42.6198 61.8716 42.7459 61.9057C45.4714 62.6721 48.146 64.2518 50.7485 61.3833C52.5727 59.3798 55.7259 58.9609 56.8709 55.9243C57.6768 53.7961 59.7707 52.8129 62.0942 52.9443C67.6356 53.2608 73.0034 48.9739 73.7733 43.5051C73.8742 42.7579 73.984 42.0056 74.1152 41.0034L74.1255 41.0212ZM66.5912 59.7908C63.7895 59.0565 61.1187 60.7411 60.7559 63.3499C63.5615 63.7018 65.4101 62.5395 66.5912 59.7908Z" fill="#191919"/>
</svg>
